<svg width="152" height="128" viewBox="0 0 152 128" fill="none" xmlns="http://www.w3.org/2000/svg">
<rect width="152" height="128" rx="29" fill="white"/>
<g filter="url(#filter0_d_1_7)">
<path d="M82.4909 33.68L74.4269 35.792V93.008L82.4909 95.12C82.4909 97.04 82.0109 98 81.0509 98C80.4749 98 77.1789 97.872 71.1629 97.616L61.0829 98C60.1229 98 59.6429 97.04 59.6429 95.12L67.3229 93.008L66.3629 65.36L32.3789 66.704L31.5149 93.008L39.1949 95.12C39.1949 97.04 38.7149 98 37.7549 98C36.9869 98 33.6269 97.872 27.6749 97.616L17.7869 98C16.8269 98 16.3469 97.04 16.3469 95.12L24.4109 93.008V35.792L16.3469 33.68C16.3469 31.76 16.8269 30.8 17.7869 30.8C18.3629 30.8 21.6589 30.928 27.6749 31.184L37.7549 30.8C38.7149 30.8 39.1949 31.76 39.1949 33.68L31.5149 35.792L32.3789 61.136H66.4589L67.3229 35.792L59.6429 33.68C59.6429 31.76 60.1229 30.8 61.0829 30.8C61.8509 30.8 65.2109 30.928 71.1629 31.184L81.0509 30.8C82.0109 30.8 82.4909 31.76 82.4909 33.68ZM135.681 81.68C135.681 87.248 133.569 91.568 129.345 94.64C125.121 97.648 119.713 99.152 113.121 99.152C106.593 99.152 99.7449 97.616 92.5769 94.544C93.7929 83.984 94.5289 78.704 94.7849 78.704C97.5369 78.704 98.9129 79.088 98.9129 79.856V90.512C103.073 93.2 107.713 94.544 112.833 94.544C118.017 94.544 121.761 93.456 124.065 91.28C126.369 89.104 127.521 86.32 127.521 82.928C127.521 78.512 125.249 74.992 120.705 72.368L103.713 62.672C100.513 60.88 98.0809 58.64 96.4169 55.952C94.7529 53.2 93.9209 50.32 93.9209 47.312C93.9209 42.512 95.8729 38.384 99.7769 34.928C103.745 31.408 109.121 29.648 115.905 29.648C120.833 29.648 126.369 30.8 132.513 33.104L130.017 47.888C127.329 47.888 125.985 47.44 125.985 46.544V36.848C122.529 35.248 118.977 34.448 115.329 34.448C108.801 34.448 104.065 36.848 101.121 41.648C100.801 42.736 100.641 44.016 100.641 45.488C100.641 49.904 103.041 53.488 107.841 56.24L124.353 65.648C128.001 67.76 130.785 70.256 132.705 73.136C134.689 76.016 135.681 78.864 135.681 81.68Z" fill="black"/>
<path d="M82.4909 33.68L82.6176 34.1637L82.9909 34.0659V33.68H82.4909ZM74.4269 35.792L74.3002 35.3083L73.9269 35.4061V35.792H74.4269ZM74.4269 93.008H73.9269V93.3939L74.3002 93.4917L74.4269 93.008ZM82.4909 95.12H82.9909V94.7341L82.6176 94.6363L82.4909 95.12ZM71.1629 97.616L71.1841 97.1165L71.164 97.1156L71.1438 97.1164L71.1629 97.616ZM61.0829 98V98.5H61.0924L61.1019 98.4996L61.0829 98ZM59.6429 95.12L59.5103 94.6379L59.1429 94.7389V95.12H59.6429ZM67.3229 93.008L67.4555 93.4901L67.8363 93.3854L67.8226 92.9906L67.3229 93.008ZM66.3629 65.36L66.8626 65.3426L66.8451 64.8405L66.3431 64.8604L66.3629 65.36ZM32.3789 66.704L32.3591 66.2044L31.8944 66.2228L31.8791 66.6876L32.3789 66.704ZM31.5149 93.008L31.0151 92.9916L31.0022 93.3856L31.3823 93.4901L31.5149 93.008ZM39.1949 95.12H39.6949V94.7389L39.3275 94.6379L39.1949 95.12ZM27.6749 97.616L27.6964 97.1165L27.6759 97.1156L27.6555 97.1164L27.6749 97.616ZM17.7869 98V98.5H17.7966L17.8063 98.4996L17.7869 98ZM16.3469 95.12L16.2202 94.6363L15.8469 94.7341V95.12H16.3469ZM24.4109 93.008L24.5376 93.4917L24.9109 93.3939V93.008H24.4109ZM24.4109 35.792H24.9109V35.4061L24.5376 35.3083L24.4109 35.792ZM16.3469 33.68H15.8469V34.0659L16.2202 34.1637L16.3469 33.68ZM27.6749 31.184L27.6536 31.6835L27.6738 31.6844L27.6939 31.6836L27.6749 31.184ZM37.7549 30.8V30.3H37.7454L37.7358 30.3004L37.7549 30.8ZM39.1949 33.68L39.3275 34.1621L39.6949 34.0611V33.68H39.1949ZM31.5149 35.792L31.3823 35.3099L31.0017 35.4146L31.0152 35.809L31.5149 35.792ZM32.3789 61.136L31.8792 61.153L31.8956 61.636H32.3789V61.136ZM66.4589 61.136V61.636H66.9421L66.9586 61.153L66.4589 61.136ZM67.3229 35.792L67.8226 35.809L67.836 35.4146L67.4555 35.3099L67.3229 35.792ZM59.6429 33.68H59.1429V34.0611L59.5103 34.1621L59.6429 33.68ZM71.1629 31.184L71.1414 31.6835L71.1618 31.6844L71.1823 31.6836L71.1629 31.184ZM81.0509 30.8V30.3H81.0412L81.0315 30.3004L81.0509 30.8ZM82.3642 33.1963L74.3002 35.3083L74.5536 36.2757L82.6176 34.1637L82.3642 33.1963ZM73.9269 35.792V93.008H74.9269V35.792H73.9269ZM74.3002 93.4917L82.3642 95.6037L82.6176 94.6363L74.5536 92.5243L74.3002 93.4917ZM81.9909 95.12C81.9909 96.0545 81.8714 96.6809 81.6837 97.0564C81.5933 97.2371 81.4957 97.3426 81.4035 97.404C81.3145 97.4633 81.2034 97.5 81.0509 97.5V98.5C81.3784 98.5 81.6872 98.4167 81.9582 98.236C82.2261 98.0574 82.4284 97.8029 82.5781 97.5036C82.8703 96.9191 82.9909 96.1055 82.9909 95.12H81.9909ZM81.0509 97.5C80.4888 97.5 77.2096 97.3729 71.1841 97.1165L71.1416 98.1155C77.1482 98.3711 80.4609 98.5 81.0509 98.5V97.5ZM71.1438 97.1164L61.0638 97.5004L61.1019 98.4996L71.1819 98.1156L71.1438 97.1164ZM61.0829 97.5C60.9304 97.5 60.8192 97.4633 60.7302 97.404C60.6381 97.3426 60.5404 97.2371 60.4501 97.0564C60.2623 96.6809 60.1429 96.0545 60.1429 95.12H59.1429C59.1429 96.1055 59.2634 96.9191 59.5557 97.5036C59.7053 97.8029 59.9077 98.0574 60.1755 98.236C60.4465 98.4167 60.7554 98.5 61.0829 98.5V97.5ZM59.7755 95.6021L67.4555 93.4901L67.1903 92.5259L59.5103 94.6379L59.7755 95.6021ZM67.8226 92.9906L66.8626 65.3426L65.8632 65.3773L66.8232 93.0254L67.8226 92.9906ZM66.3431 64.8604L32.3591 66.2044L32.3986 67.2036L66.3826 65.8596L66.3431 64.8604ZM31.8791 66.6876L31.0151 92.9916L32.0146 93.0244L32.8786 66.7204L31.8791 66.6876ZM31.3823 93.4901L39.0623 95.6021L39.3275 94.6379L31.6475 92.5259L31.3823 93.4901ZM38.6949 95.12C38.6949 96.0545 38.5754 96.6809 38.3877 97.0564C38.2973 97.2371 38.1997 97.3426 38.1075 97.404C38.0185 97.4633 37.9074 97.5 37.7549 97.5V98.5C38.0824 98.5 38.3912 98.4167 38.6622 98.236C38.9301 98.0574 39.1324 97.8029 39.2821 97.5036C39.5743 96.9191 39.6949 96.1055 39.6949 95.12H38.6949ZM37.7549 97.5C37.0008 97.5 33.6565 97.3728 27.6964 97.1165L27.6534 98.1155C33.5972 98.3712 36.9729 98.5 37.7549 98.5V97.5ZM27.6555 97.1164L17.7675 97.5004L17.8063 98.4996L27.6943 98.1156L27.6555 97.1164ZM17.7869 97.5C17.6344 97.5 17.5232 97.4633 17.4342 97.404C17.3421 97.3426 17.2444 97.2371 17.1541 97.0564C16.9663 96.6809 16.8469 96.0545 16.8469 95.12H15.8469C15.8469 96.1055 15.9674 96.9191 16.2597 97.5036C16.4093 97.8029 16.6117 98.0574 16.8795 98.236C17.1505 98.4167 17.4594 98.5 17.7869 98.5V97.5ZM16.4736 95.6037L24.5376 93.4917L24.2842 92.5243L16.2202 94.6363L16.4736 95.6037ZM24.9109 93.008V35.792H23.9109V93.008H24.9109ZM24.5376 35.3083L16.4736 33.1963L16.2202 34.1637L24.2842 36.2757L24.5376 35.3083ZM16.8469 33.68C16.8469 32.7455 16.9663 32.1191 17.1541 31.7436C17.2444 31.5629 17.3421 31.4574 17.4342 31.396C17.5232 31.3367 17.6344 31.3 17.7869 31.3V30.3C17.4594 30.3 17.1505 30.3833 16.8795 30.564C16.6117 30.7425 16.4093 30.9971 16.2597 31.2964C15.9674 31.8809 15.8469 32.6945 15.8469 33.68H16.8469ZM17.7869 31.3C18.3489 31.3 21.6282 31.4271 27.6536 31.6835L27.6961 30.6844C21.6896 30.4289 18.3768 30.3 17.7869 30.3V31.3ZM27.6939 31.6836L37.7739 31.2996L37.7358 30.3004L27.6558 30.6844L27.6939 31.6836ZM37.7549 31.3C37.9074 31.3 38.0185 31.3367 38.1075 31.396C38.1997 31.4574 38.2973 31.5629 38.3877 31.7436C38.5754 32.1191 38.6949 32.7455 38.6949 33.68H39.6949C39.6949 32.6945 39.5743 31.8809 39.2821 31.2964C39.1324 30.9971 38.9301 30.7425 38.6622 30.564C38.3912 30.3833 38.0824 30.3 37.7549 30.3V31.3ZM39.0623 33.1979L31.3823 35.3099L31.6475 36.2741L39.3275 34.1621L39.0623 33.1979ZM31.0152 35.809L31.8792 61.153L32.8786 61.119L32.0146 35.775L31.0152 35.809ZM32.3789 61.636H66.4589V60.636H32.3789V61.636ZM66.9586 61.153L67.8226 35.809L66.8232 35.775L65.9592 61.119L66.9586 61.153ZM67.4555 35.3099L59.7755 33.1979L59.5103 34.1621L67.1903 36.2741L67.4555 35.3099ZM60.1429 33.68C60.1429 32.7455 60.2623 32.1191 60.4501 31.7436C60.5404 31.5629 60.6381 31.4574 60.7302 31.396C60.8192 31.3367 60.9304 31.3 61.0829 31.3V30.3C60.7554 30.3 60.4465 30.3833 60.1755 30.564C59.9077 30.7425 59.7053 30.9971 59.5557 31.2964C59.2634 31.8809 59.1429 32.6945 59.1429 33.68H60.1429ZM61.0829 31.3C61.8369 31.3 65.1812 31.4272 71.1414 31.6835L71.1844 30.6845C65.2405 30.4288 61.8648 30.3 61.0829 30.3V31.3ZM71.1823 31.6836L81.0703 31.2996L81.0315 30.3004L71.1435 30.6844L71.1823 31.6836ZM81.0509 31.3C81.2034 31.3 81.3145 31.3367 81.4035 31.396C81.4957 31.4574 81.5933 31.5629 81.6837 31.7436C81.8714 32.1191 81.9909 32.7455 81.9909 33.68H82.9909C82.9909 32.6945 82.8703 31.8809 82.5781 31.2964C82.4284 30.9971 82.2261 30.7425 81.9582 30.564C81.6872 30.3833 81.3784 30.3 81.0509 30.3V31.3ZM129.345 94.64L129.635 95.0473L129.639 95.0444L129.345 94.64ZM92.5769 94.544L92.0802 94.4868L92.0375 94.8568L92.3799 95.0036L92.5769 94.544ZM98.9129 90.512H98.4129V90.7842L98.6415 90.932L98.9129 90.512ZM124.065 91.28L124.408 91.6435L124.065 91.28ZM120.705 72.368L120.955 71.935L120.953 71.9337L120.705 72.368ZM103.713 62.672L103.961 62.2377L103.957 62.2357L103.713 62.672ZM96.4169 55.952L95.989 56.2107L95.9917 56.2152L96.4169 55.952ZM99.7769 34.928L100.108 35.3024L100.109 35.302L99.7769 34.928ZM132.513 33.104L133.006 33.1872L133.075 32.7806L132.688 32.6358L132.513 33.104ZM130.017 47.888V48.388H130.44L130.51 47.9712L130.017 47.888ZM125.985 36.848H126.485V36.5285L126.195 36.3943L125.985 36.848ZM101.121 41.648L100.695 41.3866L100.66 41.4432L100.641 41.5069L101.121 41.648ZM107.841 56.24L107.592 56.6738L107.593 56.6744L107.841 56.24ZM124.353 65.648L124.603 65.2153L124.6 65.2136L124.353 65.648ZM132.705 73.136L132.289 73.4134L132.293 73.4197L132.705 73.136ZM135.181 81.68C135.181 87.1004 133.136 91.2648 129.051 94.2356L129.639 95.0444C134.002 91.8712 136.181 87.3956 136.181 81.68H135.181ZM129.055 94.2327C124.936 97.1658 119.637 98.652 113.121 98.652V99.652C119.789 99.652 125.306 98.1302 129.635 95.0473L129.055 94.2327ZM113.121 98.652C106.672 98.652 99.8915 97.1348 92.7738 94.0844L92.3799 95.0036C99.5983 98.0972 106.513 99.652 113.121 99.652V98.652ZM93.0736 94.6012C93.6815 89.3221 94.1689 85.3669 94.5361 82.733C94.7198 81.4148 94.8725 80.4343 94.9943 79.7863C95.0556 79.46 95.1067 79.2308 95.1472 79.0885C95.1571 79.0539 95.1654 79.0276 95.1722 79.0082C95.1793 78.9879 95.1829 78.9804 95.1822 78.9818C95.1817 78.9828 95.1788 78.989 95.1729 78.9986C95.1675 79.0075 95.156 79.0254 95.1373 79.0469C95.1154 79.0722 94.9973 79.204 94.7849 79.204V78.204C94.5564 78.204 94.4214 78.3461 94.3816 78.392C94.3304 78.4511 94.2983 78.5123 94.2803 78.5499C94.242 78.6298 94.2113 78.724 94.1855 78.8145C94.132 79.0022 94.0742 79.268 94.0115 79.6017C93.8852 80.2737 93.7299 81.2732 93.5457 82.595C93.1768 85.2411 92.6883 89.2059 92.0802 94.4868L93.0736 94.6012ZM94.7849 79.204C96.1492 79.204 97.1259 79.3004 97.7465 79.4736C98.058 79.5605 98.2392 79.6561 98.3339 79.7354C98.4137 79.8022 98.4129 79.8376 98.4129 79.856H99.4129C99.4129 79.4904 99.2401 79.1898 98.9758 78.9686C98.7265 78.7599 98.3917 78.6155 98.0153 78.5104C97.2599 78.2996 96.1726 78.204 94.7849 78.204V79.204ZM98.4129 79.856V90.512H99.4129V79.856H98.4129ZM98.6415 90.932C102.885 93.674 107.62 95.044 112.833 95.044V94.044C107.806 94.044 103.261 92.726 99.1842 90.092L98.6415 90.932ZM112.833 95.044C118.068 95.044 121.968 93.9485 124.408 91.6435L123.722 90.9165C121.554 92.9635 117.966 94.044 112.833 94.044V95.044ZM124.408 91.6435C126.82 89.3659 128.021 86.4468 128.021 82.928H127.021C127.021 86.1932 125.918 88.8421 123.722 90.9165L124.408 91.6435ZM128.021 82.928C128.021 78.2968 125.619 74.6284 120.955 71.935L120.455 72.801C124.879 75.3556 127.021 78.7272 127.021 82.928H128.021ZM120.953 71.9337L103.961 62.2377L103.465 63.1063L120.457 72.8023L120.953 71.9337ZM103.957 62.2357C100.819 60.4785 98.4547 58.2939 96.842 55.6888L95.9917 56.2152C97.7071 58.9861 100.207 61.2815 103.469 63.1082L103.957 62.2357ZM96.8447 55.6933C95.2245 53.0137 94.4209 50.2225 94.4209 47.312H93.4209C93.4209 50.4175 94.2812 53.3863 95.989 56.2107L96.8447 55.6933ZM94.4209 47.312C94.4209 42.6685 96.3011 38.6727 100.108 35.3024L99.4455 34.5536C95.4446 38.0953 93.4209 42.3555 93.4209 47.312H94.4209ZM100.109 35.302C103.962 31.8838 109.208 30.148 115.905 30.148V29.148C109.034 29.148 103.528 30.9322 99.4451 34.554L100.109 35.302ZM115.905 30.148C120.757 30.148 126.232 31.2826 132.337 33.5722L132.688 32.6358C126.506 30.3173 120.909 29.148 115.905 29.148V30.148ZM132.02 33.0208L129.524 47.8048L130.51 47.9712L133.006 33.1872L132.02 33.0208ZM130.017 47.388C128.687 47.388 127.745 47.2756 127.151 47.0777C126.544 46.8754 126.485 46.6599 126.485 46.544H125.485C125.485 47.3241 126.097 47.7806 126.835 48.0263C127.585 48.2764 128.658 48.388 130.017 48.388V47.388ZM126.485 46.544V36.848H125.485V46.544H126.485ZM126.195 36.3943C122.676 34.7652 119.053 33.948 115.329 33.948V34.948C118.901 34.948 122.382 35.7308 125.775 37.3017L126.195 36.3943ZM115.329 33.948C108.66 33.948 103.745 36.4125 100.695 41.3866L101.547 41.9094C104.384 37.2835 108.942 34.948 115.329 34.948V33.948ZM100.641 41.5069C100.304 42.652 100.141 43.9816 100.141 45.488H101.141C101.141 44.0504 101.297 42.82 101.601 41.7891L100.641 41.5069ZM100.141 45.488C100.141 50.1304 102.683 53.8589 107.592 56.6738L108.09 55.8062C103.399 53.1171 101.141 49.6776 101.141 45.488H100.141ZM107.593 56.6744L124.105 66.0824L124.6 65.2136L108.088 55.8056L107.593 56.6744ZM124.102 66.0807C127.698 68.1625 130.42 70.6095 132.289 73.4134L133.121 72.8587C131.15 69.9025 128.304 67.3575 124.603 65.2153L124.102 66.0807ZM132.293 73.4197C134.234 76.2366 135.181 78.9875 135.181 81.68H136.181C136.181 78.7405 135.144 75.7954 133.117 72.8523L132.293 73.4197Z" fill="black"/>
</g>
<defs>
<filter id="filter0_d_1_7" x="11.8469" y="29.148" width="128.334" height="78.504" filterUnits="userSpaceOnUse" color-interpolation-filters="sRGB">
<feFlood flood-opacity="0" result="BackgroundImageFix"/>
<feColorMatrix in="SourceAlpha" type="matrix" values="0 0 0 0 0 0 0 0 0 0 0 0 0 0 0 0 0 0 127 0" result="hardAlpha"/>
<feOffset dy="4"/>
<feGaussianBlur stdDeviation="2"/>
<feComposite in2="hardAlpha" operator="out"/>
<feColorMatrix type="matrix" values="0 0 0 0 0 0 0 0 0 0 0 0 0 0 0 0 0 0 0.25 0"/>
<feBlend mode="normal" in2="BackgroundImageFix" result="effect1_dropShadow_1_7"/>
<feBlend mode="normal" in="SourceGraphic" in2="effect1_dropShadow_1_7" result="shape"/>
</filter>
</defs>
</svg>
